<?xml version="1.0" encoding="UTF-8"?>
<svg xmlns="http://www.w3.org/2000/svg" viewBox="0 0 500.01 501.3">
  <defs>
    <style>
      .cls-1, .cls-2, .cls-3, .cls-4, .cls-5 {
        stroke-width: 0px;
      }

      .cls-1, .cls-6, .cls-7 {
        fill: #f43739;
      }

      .cls-2, .cls-3 {
        fill: #406fd7;
      }

      .cls-3 {
        opacity: .1;
      }

      .cls-8 {
        letter-spacing: -.03em;
      }

      .cls-4 {
        fill: #001a35;
      }

      .cls-9 {
        font-size: 94.09px;
      }

      .cls-9, .cls-5, .cls-10 {
        fill: #fff;
      }

      .cls-9, .cls-10 {
        font-family: Raleway-Bold, Raleway;
        font-weight: 700;
      }

      .cls-11 {
        letter-spacing: -.01em;
      }

      .cls-6 {
        stroke-width: .75px;
      }

      .cls-6, .cls-7, .cls-12 {
        stroke: #000;
        stroke-miterlimit: 10;
      }

      .cls-10 {
        font-size: 29px;
      }

      .cls-7, .cls-12 {
        stroke-width: .5px;
      }

      .cls-12 {
        fill: none;
      }

      .cls-13 {
        letter-spacing: -.03em;
      }
    </style>
  </defs>
  <g id="BACKGROUND">
    <rect class="cls-4" x="0" y="1.3" width="500" height="500" rx="250" ry="250"/>
  </g>
  <g id="OBJECTS">
    <g>
      <g>
        <circle class="cls-3" cx="250" cy="250" r="198.39"/>
        <circle class="cls-3" cx="250" cy="250" r="169.91"/>
      </g>
      <g>
        <text class="cls-9" transform="translate(102.62 351.2)"><tspan x="0" y="0">QUI</tspan><tspan class="cls-8" x="168.51" y="0">T</tspan><tspan x="223.64" y="0">O</tspan></text>
        <g>
          <g>
            <path class="cls-1" d="m191.4,232.5v41.64h50.02v-27.79c0-4.74,3.84-8.58,8.58-8.58s8.58,3.84,8.58,8.58v27.79h50.02v-41.64h-117.19Zm26.79,21.96h-7.37v-11.51h7.37v11.51Zm70.98,0h-7.37v-11.51h7.37v11.51Z"/>
            <g>
              <g>
                <polygon class="cls-1" points="216.74 131.21 215.01 131.21 213.29 131.21 201.93 149.15 215.01 149.15 228.1 149.15 216.74 131.21"/>
                <polygon class="cls-1" points="215.57 132.91 214.46 132.91 214.92 120.78 215.1 120.78 215.57 132.91"/>
                <rect class="cls-1" x="200.56" y="150.15" width="28.91" height="3.77"/>
                <path class="cls-1" d="m200.56,154.91v21.72h10.03v-14.45c0-2.44,1.98-4.43,4.43-4.43h0c2.44,0,4.43,1.98,4.43,4.43v14.45h10.03v-21.72h-28.91Z"/>
              </g>
              <g>
                <polygon class="cls-1" points="286.69 131.21 284.97 131.21 283.25 131.21 271.89 149.15 284.97 149.15 298.06 149.15 286.69 131.21"/>
                <polygon class="cls-1" points="285.52 132.91 284.42 132.91 284.88 120.78 285.06 120.78 285.52 132.91"/>
                <rect class="cls-1" x="270.51" y="150.15" width="28.91" height="3.77"/>
                <path class="cls-1" d="m270.51,154.91v21.72h10.03v-14.45c0-2.44,1.98-4.43,4.43-4.43h0c2.44,0,4.43,1.98,4.43,4.43v14.45h10.03v-21.72h-28.91Z"/>
              </g>
            </g>
            <polygon class="cls-1" points="303.25 181.64 196.74 181.64 194.74 177.64 305.25 177.64 303.25 181.64"/>
            <polygon class="cls-1" points="191.18 227.2 308.8 227.2 311.01 231.2 188.97 231.2 191.18 227.2"/>
            <polygon class="cls-1" points="236.45 225.91 236.45 225.91 263.53 225.91 263.53 225.9 236.45 225.9 236.45 225.91"/>
            <g>
              <path class="cls-6" d="m241.76,201.09v17.48h17.48v-17.48h-17.48Zm13.98,13.98h-10.47v-10.47h10.47v10.47Z"/>
              <path class="cls-1" d="m259.69,200.18h-18.38c-.25,0-.45.2-.45.45v18.38c0,.25.2.45.45.45h18.38c.25,0,.45-.2.45-.45v-18.38c0-.25-.2-.45-.45-.45Zm-17.93.9h17.48v17.48h-17.48"/>
              <path class="cls-1" d="m274.48,206.82v-12.63h-47.95v31.72h47.95v-19.09Zm-14.33,12.2c0,.25-.2.45-.45.45h-18.38c-.25,0-.45-.2-.45-.45v-18.38c0-.25.2-.45.45-.45h18.38c.25,0,.45.2.45.45v18.38Z"/>
              <path class="cls-1" d="m225.63,206.65v-12.91s0,0,0-.01c0-.01,0-.02,0-.03,0-.06.03-.12.06-.17,0,0,0-.02,0-.03.07-.1,5.95-8.92,19.06-10.86h-47.24v34.21s0,0,.01,0c.17.02,17.67,1.97,28.09-10.19Zm-14.3-10.7h7.37v10.2h-7.37v-10.2Z"/>
              <path class="cls-1" d="m197.54,217.79v8.24h28.09v-18.15c-9.9,10.71-25.12,10.14-28.09,9.91Z"/>
              <path class="cls-1" d="m302.46,216.92v-34.28h-46.28c13.15,1.94,19.06,10.76,19.12,10.86,0,0,0,.02,0,.03.03.05.05.11.06.17,0,.01,0,.02,0,.03,0,0,0,0,0,.01v12.91c8.98,10.48,23.21,10.48,27.08,10.27Zm-20.15-20.97h7.37v10.2h-7.37v-10.2Z"/>
              <path class="cls-1" d="m275.38,208.01v17.89h27.08v-8.08c-4,.21-17.87.15-27.08-9.81Z"/>
              <path class="cls-1" d="m226.97,193.29h47.06c-1.91-2.39-9.17-10.14-23-10.14-.17,0-.34,0-.52,0h-.01c-14.15-.2-21.59,7.71-23.52,10.13Z"/>
              <g>
                <path class="cls-7" d="m204.4,193.7h21.23c-.86-1.08-4.14-4.57-10.38-4.57-.08,0-.16,0-.23,0h0c-6.39-.09-9.74,3.48-10.61,4.57Z"/>
                <path class="cls-7" d="m217.83,188.98c0,1.28-1.03,2.31-2.31,2.31s-2.31-1.03-2.31-2.31,1.03-2.31,2.31-2.31,2.31,1.03,2.31,2.31Z"/>
              </g>
              <g>
                <path class="cls-7" d="m275.38,193.7h21.23c-.86-1.08-4.14-4.57-10.38-4.57-.08,0-.16,0-.23,0h0c-6.39-.09-9.74,3.48-10.61,4.57Z"/>
                <path class="cls-7" d="m288.81,188.98c0,1.28-1.03,2.31-2.31,2.31s-2.31-1.03-2.31-2.31,1.03-2.31,2.31-2.31,2.31,1.03,2.31,2.31Z"/>
              </g>
            </g>
            <g>
              <g>
                <g>
                  <rect class="cls-12" x="200.97" y="213.53" width="5.95" height="60.6"/>
                  <polygon class="cls-12" points="204.34 200.56 203.94 200.56 203.55 200.56 200.97 211.9 203.94 211.9 206.92 211.9 204.34 200.56"/>
                  <path class="cls-12" d="m205.43,199.07c0,.82-.67,1.49-1.49,1.49s-1.49-.67-1.49-1.49.67-1.49,1.49-1.49,1.49.67,1.49,1.49Z"/>
                  <polygon class="cls-12" points="208.37 214.11 199.52 214.11 200.31 211.9 207.58 211.9 208.37 214.11"/>
                </g>
                <g>
                  <rect class="cls-12" x="222.03" y="213.53" width="5.95" height="60.6"/>
                  <polygon class="cls-12" points="225.39 200.56 225 200.56 224.61 200.56 222.03 211.9 225 211.9 227.98 211.9 225.39 200.56"/>
                  <path class="cls-12" d="m226.49,199.07c0,.82-.67,1.49-1.49,1.49s-1.49-.67-1.49-1.49.67-1.49,1.49-1.49,1.49.67,1.49,1.49Z"/>
                  <polygon class="cls-12" points="229.42 214.11 220.58 214.11 221.37 211.9 228.64 211.9 229.42 214.11"/>
                </g>
              </g>
              <g>
                <g>
                  <rect class="cls-12" x="272.01" y="213.53" width="5.95" height="60.6"/>
                  <polygon class="cls-12" points="275.37 200.56 274.98 200.56 274.59 200.56 272.01 211.9 274.98 211.9 277.96 211.9 275.37 200.56"/>
                  <path class="cls-12" d="m276.47,199.07c0,.82-.67,1.49-1.49,1.49s-1.49-.67-1.49-1.49.67-1.49,1.49-1.49,1.49.67,1.49,1.49Z"/>
                  <polygon class="cls-12" points="279.4 214.11 270.56 214.11 271.34 211.9 278.62 211.9 279.4 214.11"/>
                </g>
                <g>
                  <rect class="cls-12" x="293.06" y="213.53" width="5.95" height="60.6"/>
                  <polygon class="cls-12" points="296.43 200.56 296.04 200.56 295.65 200.56 293.06 211.9 296.04 211.9 299.01 211.9 296.43 200.56"/>
                  <path class="cls-12" d="m297.53,199.07c0,.82-.67,1.49-1.49,1.49s-1.49-.67-1.49-1.49.67-1.49,1.49-1.49,1.49.67,1.49,1.49Z"/>
                  <polygon class="cls-12" points="300.46 214.11 291.62 214.11 292.4 211.9 299.68 211.9 300.46 214.11"/>
                </g>
              </g>
            </g>
          </g>
          <path class="cls-2" d="m101.27,194.29v75.31h-10.72v4.53h99.7v-41.94h-3.12l3.31-6h6.02s0-31.91,0-31.91h-95.19Zm17.6,59.51h-7.37v-10.2h7.37v10.2Zm0-35.69h-7.37v-10.2h7.37v10.2Zm20.43,35.69h-7.37v-10.2h7.37v10.2Zm0-35.69h-7.37v-10.2h7.37v10.2Zm20.43,35.69h-7.37v-10.2h7.37v10.2Zm0-35.69h-7.37v-10.2h7.37v10.2Zm20.43,35.69h-7.37v-10.2h7.37v10.2Zm0-35.69h-7.37v-10.2h7.37v10.2Z"/>
          <path class="cls-2" d="m303.57,194.1v31.91l6.13.19,3.31,6h-3.12v41.94h99.59v-4.53h-10.72v-75.31l-95.18-.19Zm77.58,49.5h7.37v10.2h-7.37v-10.2Zm0-35.69h7.37v10.2h-7.37v-10.2Zm-20.43,35.69h7.37v10.2h-7.37v-10.2Zm0-35.69h7.37v10.2h-7.37v-10.2Zm-20.43,35.69h7.37v10.2h-7.37v-10.2Zm0-35.69h7.37v10.2h-7.37v-10.2Zm-20.43,35.69h7.37v10.2h-7.37v-10.2Zm0-35.69h7.37v10.2h-7.37v-10.2Z"/>
        </g>
        <rect class="cls-5" x="136.79" y="362.4" width="227.62" height="4.53"/>
        <text class="cls-10" transform="translate(180.14 397.3)"><tspan class="cls-11" x="0" y="0">E</tspan><tspan x="16.99" y="0">C</tspan><tspan class="cls-13" x="36.89" y="0">U</tspan><tspan x="57.77" y="0">ADOR</tspan></text>
      </g>
    </g>
  </g>
</svg>